<?xml version="1.0" encoding="UTF-8"?>
<svg width="10px" height="10px" viewBox="0 0 10 10" version="1.1" xmlns="http://www.w3.org/2000/svg" xmlns:xlink="http://www.w3.org/1999/xlink">
    <path fill="currentColor" d="M6.38470299,5.11681871 C6.29413983,5.02625555 6.29413983,4.8904108 6.38470299,4.79984764 L9.7808216,1.40372903 C9.87138477,1.31316586 9.91666635,1.17732112 9.91666635,1.08675796 C9.91666635,0.996194793 9.87138477,0.860350049 9.7808216,0.769786886 L9.14687946,0.135844745 C9.0563163,0.0452815815 8.92047156,0 8.82990839,0 C8.69406365,0 8.60350049,0.0452815815 8.51293732,0.135844745 L5.11681871,3.53196336 C5.02625555,3.62252652 4.8904108,3.62252652 4.79984764,3.53196336 L1.40372903,0.135844745 C1.31316586,0.0452815815 1.17732112,0 1.08675796,0 C0.996194793,0 0.860350049,0.0452815815 0.769786886,0.135844745 L0.135844745,0.769786886 C0.0452815815,0.860350049 0,0.996194793 0,1.08675796 C0,1.17732112 0.0452815815,1.31316586 0.135844745,1.40372903 L3.53196336,4.79984764 C3.62252652,4.8904108 3.62252652,5.02625555 3.53196336,5.11681871 L0.135844745,8.51293732 C0.0452815815,8.60350049 0,8.73934523 0,8.82990839 C0,8.92047156 0.0452815815,9.0563163 0.135844745,9.14687946 L0.769786886,9.7808216 C0.860350049,9.87138477 0.996194793,9.91666635 1.08675796,9.91666635 C1.17732112,9.91666635 1.31316586,9.87138477 1.40372903,9.7808216 L4.79984764,6.38470299 C4.8904108,6.29413983 5.02625555,6.29413983 5.11681871,6.38470299 L8.51293732,9.7808216 C8.60350049,9.87138477 8.73934523,9.91666635 8.82990839,9.91666635 C8.92047156,9.91666635 9.0563163,9.87138477 9.14687946,9.7808216 L9.7808216,9.14687946 C9.87138477,9.0563163 9.91666635,8.92047156 9.91666635,8.82990839 C9.91666635,8.73934523 9.87138477,8.60350049 9.7808216,8.51293732 L6.38470299,5.11681871 Z"></path>
</svg>
